# xmcd
#
# Track frame offsets: 
#        150
#        35453
#        49620
#        63879
#        83364
#        103151
#        119551
#        141322
#        159901
#        181717
#        200641
#        220520
#
# Disc length: 3175 seconds
#
# Revision: 6
# Processed by: cddbd v1.5.2PL0 Copyright (c) Steve Scherf et al.
# Submitted via: ExactAudioCopy v0.95a4
#
DISCID=9b0c650c
DTITLE=The Judds - The Judds Reunion Live [CD 1)
DYEAR=1999
DGENRE=Country
TTITLE0=Love Can Bulid A Bridge
TTITLE1=Girls Night Out
TTITLE2=Rockin' With The Rhythm
TTITLE3=Have Mercy
TTITLE4=Love Is Alive
TTITLE5=Turn It Loose
TTITLE6=She Is His Only Need
TTITLE7=I Saw The Light
TTITLE8=My Strongest Weakness
TTITLE9=Give A Little Love
TTITLE10=River Of Time
TTITLE11=I Know Where I'm Going
EXTD=Year: 1999/2000\n\n\n                                            
EXTD=December 31, 1999 Live in Phoenix, Arizona\n\n\n                 
EXTD=                        Wynonna International Fan Club\n
EXTD=                                                    P.O
EXTD=Box 120777\n                                                   
EXTD=Nashville, TN 37212\n\n\n                                
EXTD=                  www.wynonna.com
EXTT0=
EXTT1=
EXTT2=
EXTT3=
EXTT4=
EXTT5=
EXTT6=
EXTT7=
EXTT8=
EXTT9=
EXTT10=
EXTT11=
PLAYORDER=
